<mxfile host="65bd71144e">
    <diagram id="ey5QsNdlkvTPe8g4StYB" name="Page-1">
        <mxGraphModel dx="1640" dy="884" grid="1" gridSize="10" guides="1" tooltips="1" connect="1" arrows="1" fold="1" page="1" pageScale="1" pageWidth="827" pageHeight="1169" math="0" shadow="0">
            <root>
                <mxCell id="0"/>
                <mxCell id="1" parent="0"/>
                <mxCell id="6" value="Inspect user informationÂ " style="swimlane;fillColor=#1071e5;" parent="1" vertex="1">
                    <mxGeometry x="80" y="70" width="680" height="1030" as="geometry"/>
                </mxCell>
                <mxCell id="18" style="edgeStyle=none;html=1;exitX=0.5;exitY=1;exitDx=0;exitDy=0;entryX=0.5;entryY=0;entryDx=0;entryDy=0;strokeColor=#000000;" parent="6" source="7" target="15" edge="1">
                    <mxGeometry relative="1" as="geometry"/>
                </mxCell>
                <mxCell id="7" value="Access as administrator&amp;nbsp;" style="rounded=1;whiteSpace=wrap;html=1;fillColor=#0c7c7d;" parent="6" vertex="1">
                    <mxGeometry x="274" y="60" width="120" height="60" as="geometry"/>
                </mxCell>
                <mxCell id="23" style="edgeStyle=none;html=1;exitX=1;exitY=0.5;exitDx=0;exitDy=0;entryX=0.5;entryY=0;entryDx=0;entryDy=0;strokeColor=#000000;" parent="6" source="15" target="22" edge="1">
                    <mxGeometry relative="1" as="geometry">
                        <Array as="points">
                            <mxPoint x="540" y="170"/>
                        </Array>
                    </mxGeometry>
                </mxCell>
                <mxCell id="24" style="edgeStyle=none;html=1;exitX=0;exitY=0.5;exitDx=0;exitDy=0;entryX=0.5;entryY=0;entryDx=0;entryDy=0;strokeColor=#000000;" parent="6" source="15" target="21" edge="1">
                    <mxGeometry relative="1" as="geometry">
                        <Array as="points">
                            <mxPoint x="140" y="170"/>
                        </Array>
                    </mxGeometry>
                </mxCell>
                <mxCell id="15" value="" style="rhombus;whiteSpace=wrap;html=1;labelBackgroundColor=none;fontColor=#FFFFFF;fillColor=none;strokeColor=#0C7C7D;strokeWidth=3;" parent="6" vertex="1">
                    <mxGeometry x="324" y="160" width="20" height="20" as="geometry"/>
                </mxCell>
                <mxCell id="20" value="graphical&amp;nbsp;" style="text;html=1;strokeColor=none;fillColor=none;align=center;verticalAlign=middle;whiteSpace=wrap;rounded=0;labelBackgroundColor=none;fontColor=#000000;strokeWidth=1;fontSize=10;" parent="6" vertex="1">
                    <mxGeometry x="420" y="160" width="85" height="10" as="geometry"/>
                </mxCell>
                <mxCell id="28" style="edgeStyle=none;html=1;exitX=0.5;exitY=1;exitDx=0;exitDy=0;entryX=0.5;entryY=0;entryDx=0;entryDy=0;strokeColor=#000000;" parent="6" source="21" target="27" edge="1">
                    <mxGeometry relative="1" as="geometry"/>
                </mxCell>
                <mxCell id="21" value="through the website" style="rounded=1;whiteSpace=wrap;html=1;fillColor=#259B9C;" parent="6" vertex="1">
                    <mxGeometry x="80" y="200" width="120" height="60" as="geometry"/>
                </mxCell>
                <mxCell id="52" style="edgeStyle=none;html=1;exitX=0.5;exitY=1;exitDx=0;exitDy=0;strokeColor=#000000;" edge="1" parent="6" source="22" target="35">
                    <mxGeometry relative="1" as="geometry"/>
                </mxCell>
                <mxCell id="22" value="through the database" style="rounded=1;whiteSpace=wrap;html=1;fillColor=#259B9C;" parent="6" vertex="1">
                    <mxGeometry x="480" y="200" width="120" height="60" as="geometry"/>
                </mxCell>
                <mxCell id="25" value="non-graphical&amp;nbsp;" style="text;html=1;strokeColor=none;fillColor=none;align=center;verticalAlign=middle;whiteSpace=wrap;rounded=0;labelBackgroundColor=none;fontColor=#000000;strokeWidth=1;fontSize=10;" parent="6" vertex="1">
                    <mxGeometry x="189" y="160" width="85" height="10" as="geometry"/>
                </mxCell>
                <mxCell id="31" style="edgeStyle=none;html=1;exitX=0.5;exitY=1;exitDx=0;exitDy=0;entryX=0.5;entryY=0;entryDx=0;entryDy=0;strokeColor=#000000;" parent="6" source="27" target="29" edge="1">
                    <mxGeometry relative="1" as="geometry"/>
                </mxCell>
                <mxCell id="27" value="Access to the website&amp;nbsp;" style="rounded=1;whiteSpace=wrap;html=1;fillColor=#259B9C;" parent="6" vertex="1">
                    <mxGeometry x="80" y="300" width="120" height="60" as="geometry"/>
                </mxCell>
                <mxCell id="41" style="edgeStyle=none;html=1;exitX=0.5;exitY=1;exitDx=0;exitDy=0;entryX=0.5;entryY=0;entryDx=0;entryDy=0;strokeColor=#000000;" edge="1" parent="6" source="29" target="33">
                    <mxGeometry relative="1" as="geometry"/>
                </mxCell>
                <mxCell id="29" value="the main screen is displayed&amp;nbsp;" style="rounded=1;whiteSpace=wrap;html=1;fillColor=#259B9C;" parent="6" vertex="1">
                    <mxGeometry x="80" y="400" width="120" height="60" as="geometry"/>
                </mxCell>
                <mxCell id="42" style="edgeStyle=none;html=1;exitX=0.5;exitY=1;exitDx=0;exitDy=0;entryX=0.5;entryY=0;entryDx=0;entryDy=0;strokeColor=#000000;" edge="1" parent="6" source="33" target="34">
                    <mxGeometry relative="1" as="geometry"/>
                </mxCell>
                <mxCell id="33" value="Access to the menus&amp;nbsp;" style="rounded=1;whiteSpace=wrap;html=1;fillColor=#259B9C;" vertex="1" parent="6">
                    <mxGeometry x="80" y="500" width="120" height="60" as="geometry"/>
                </mxCell>
                <mxCell id="43" style="edgeStyle=none;html=1;exitX=0;exitY=0.5;exitDx=0;exitDy=0;entryX=0.5;entryY=0;entryDx=0;entryDy=0;strokeColor=#000000;" edge="1" parent="6" source="34" target="38">
                    <mxGeometry relative="1" as="geometry">
                        <Array as="points">
                            <mxPoint x="62" y="600"/>
                        </Array>
                    </mxGeometry>
                </mxCell>
                <mxCell id="44" style="edgeStyle=none;html=1;exitX=0.5;exitY=1;exitDx=0;exitDy=0;entryX=0.5;entryY=0;entryDx=0;entryDy=0;strokeColor=#000000;" edge="1" parent="6" source="34" target="40">
                    <mxGeometry relative="1" as="geometry"/>
                </mxCell>
                <mxCell id="45" style="edgeStyle=none;html=1;exitX=1;exitY=0.5;exitDx=0;exitDy=0;entryX=0.5;entryY=0;entryDx=0;entryDy=0;strokeColor=#000000;" edge="1" parent="6" source="34" target="39">
                    <mxGeometry relative="1" as="geometry">
                        <Array as="points">
                            <mxPoint x="214" y="600"/>
                        </Array>
                    </mxGeometry>
                </mxCell>
                <mxCell id="34" value="" style="rhombus;whiteSpace=wrap;html=1;labelBackgroundColor=none;fontColor=#FFFFFF;fillColor=none;strokeColor=#0C7C7D;strokeWidth=3;" vertex="1" parent="6">
                    <mxGeometry x="130" y="590" width="20" height="20" as="geometry"/>
                </mxCell>
                <mxCell id="54" style="edgeStyle=none;html=1;exitX=0.5;exitY=1;exitDx=0;exitDy=0;entryX=0.5;entryY=0;entryDx=0;entryDy=0;strokeColor=#000000;" edge="1" parent="6" source="35" target="53">
                    <mxGeometry relative="1" as="geometry"/>
                </mxCell>
                <mxCell id="35" value="&lt;div&gt;enter a DB program (Recommended MySQL Workbench)&lt;/div&gt;" style="rounded=1;whiteSpace=wrap;html=1;fillColor=#259B9C;" vertex="1" parent="6">
                    <mxGeometry x="480" y="290" width="120" height="80" as="geometry"/>
                </mxCell>
                <mxCell id="50" style="edgeStyle=none;html=1;exitX=0.5;exitY=1;exitDx=0;exitDy=0;entryX=0.5;entryY=0;entryDx=0;entryDy=0;strokeColor=#000000;" edge="1" parent="6" source="37" target="49">
                    <mxGeometry relative="1" as="geometry"/>
                </mxCell>
                <mxCell id="37" value="Analyze the information of the player(s)&amp;nbsp;" style="rounded=1;whiteSpace=wrap;html=1;fillColor=#259B9C;" vertex="1" parent="6">
                    <mxGeometry x="75" y="750" width="130" height="60" as="geometry"/>
                </mxCell>
                <mxCell id="46" style="edgeStyle=none;html=1;exitX=0.5;exitY=1;exitDx=0;exitDy=0;entryX=0.5;entryY=0;entryDx=0;entryDy=0;strokeColor=#000000;" edge="1" parent="6" source="38" target="37">
                    <mxGeometry relative="1" as="geometry"/>
                </mxCell>
                <mxCell id="38" value="User information (game progress)&amp;nbsp;&amp;nbsp;" style="rounded=1;whiteSpace=wrap;html=1;labelBackgroundColor=none;fontSize=10;fontColor=#000000;strokeColor=#FFFFFF;strokeWidth=1;fillColor=#259B9C;" vertex="1" parent="6">
                    <mxGeometry x="30" y="650" width="64" height="50" as="geometry"/>
                </mxCell>
                <mxCell id="48" style="edgeStyle=none;html=1;exitX=0.5;exitY=1;exitDx=0;exitDy=0;entryX=0.5;entryY=0;entryDx=0;entryDy=0;strokeColor=#000000;" edge="1" parent="6" source="39" target="37">
                    <mxGeometry relative="1" as="geometry"/>
                </mxCell>
                <mxCell id="39" value="Usser scores&amp;nbsp;" style="rounded=1;whiteSpace=wrap;html=1;labelBackgroundColor=none;fontSize=10;fontColor=#000000;strokeColor=#FFFFFF;strokeWidth=1;fillColor=#259B9C;" vertex="1" parent="6">
                    <mxGeometry x="189" y="650" width="50" height="50" as="geometry"/>
                </mxCell>
                <mxCell id="40" value="Ranking&amp;nbsp;" style="rounded=1;whiteSpace=wrap;html=1;labelBackgroundColor=none;fontSize=10;fontColor=#000000;strokeColor=#FFFFFF;strokeWidth=1;fillColor=#259B9C;" vertex="1" parent="6">
                    <mxGeometry x="115" y="650" width="50" height="50" as="geometry"/>
                </mxCell>
                <mxCell id="47" style="edgeStyle=none;html=1;exitX=0.5;exitY=1;exitDx=0;exitDy=0;strokeColor=#000000;entryX=0.5;entryY=0;entryDx=0;entryDy=0;" edge="1" parent="6" source="40" target="37">
                    <mxGeometry relative="1" as="geometry">
                        <mxPoint x="150" y="740" as="targetPoint"/>
                    </mxGeometry>
                </mxCell>
                <mxCell id="51" style="edgeStyle=none;html=1;exitX=0.5;exitY=1;exitDx=0;exitDy=0;entryX=0.5;entryY=0;entryDx=0;entryDy=0;strokeColor=#000000;" edge="1" parent="6" source="49" target="16">
                    <mxGeometry relative="1" as="geometry"/>
                </mxCell>
                <mxCell id="49" value="Finish inspecting the information and exit the page." style="rounded=1;whiteSpace=wrap;html=1;fillColor=#259B9C;" vertex="1" parent="6">
                    <mxGeometry x="80" y="840" width="120" height="60" as="geometry"/>
                </mxCell>
                <mxCell id="16" value="" style="ellipse;whiteSpace=wrap;html=1;aspect=fixed;labelBackgroundColor=none;fontColor=#FFFFFF;strokeColor=#000000;strokeWidth=1;fillColor=none;" parent="6" vertex="1">
                    <mxGeometry x="125" y="930" width="30" height="30" as="geometry"/>
                </mxCell>
                <mxCell id="17" value="" style="ellipse;whiteSpace=wrap;html=1;labelBackgroundColor=none;fontColor=#FFFFFF;strokeColor=#000000;strokeWidth=1;fillColor=#000000;" parent="6" vertex="1">
                    <mxGeometry x="128" y="932.5" width="24" height="25" as="geometry"/>
                </mxCell>
                <mxCell id="53" value="Start the database containing the game files" style="rounded=1;whiteSpace=wrap;html=1;fillColor=#259B9C;" vertex="1" parent="6">
                    <mxGeometry x="480" y="410" width="120" height="60" as="geometry"/>
                </mxCell>
                <mxCell id="59" style="edgeStyle=none;html=1;exitX=0.5;exitY=1;exitDx=0;exitDy=0;entryX=0.5;entryY=0;entryDx=0;entryDy=0;strokeColor=#000000;" edge="1" parent="6" source="55" target="58">
                    <mxGeometry relative="1" as="geometry"/>
                </mxCell>
                <mxCell id="55" value="run the commands to display the player's information&amp;nbsp;" style="rounded=1;whiteSpace=wrap;html=1;fillColor=#259B9C;" vertex="1" parent="6">
                    <mxGeometry x="480" y="515" width="120" height="60" as="geometry"/>
                </mxCell>
                <mxCell id="56" style="edgeStyle=none;html=1;exitX=0.5;exitY=1;exitDx=0;exitDy=0;strokeColor=#000000;entryX=0.5;entryY=0;entryDx=0;entryDy=0;" edge="1" parent="6" source="53" target="55">
                    <mxGeometry relative="1" as="geometry">
                        <mxPoint x="540" y="510" as="targetPoint"/>
                    </mxGeometry>
                </mxCell>
                <mxCell id="102" style="edgeStyle=none;html=1;exitX=0.5;exitY=1;exitDx=0;exitDy=0;entryX=0.5;entryY=0;entryDx=0;entryDy=0;strokeColor=#000000;" edge="1" parent="6" source="58" target="101">
                    <mxGeometry relative="1" as="geometry"/>
                </mxCell>
                <mxCell id="58" value="Displays the tables of the requested information depending on the command entered.&amp;nbsp;" style="rounded=1;whiteSpace=wrap;html=1;fillColor=#259B9C;" vertex="1" parent="6">
                    <mxGeometry x="460" y="610" width="160" height="80" as="geometry"/>
                </mxCell>
                <mxCell id="107" style="edgeStyle=none;html=1;exitX=1;exitY=0.5;exitDx=0;exitDy=0;entryX=1;entryY=0.5;entryDx=0;entryDy=0;strokeColor=#000000;" edge="1" parent="6" source="101" target="104">
                    <mxGeometry relative="1" as="geometry">
                        <Array as="points">
                            <mxPoint x="650" y="730"/>
                            <mxPoint x="650" y="985"/>
                        </Array>
                    </mxGeometry>
                </mxCell>
                <mxCell id="108" style="edgeStyle=none;html=1;exitX=1;exitY=0.5;exitDx=0;exitDy=0;entryX=1;entryY=0.5;entryDx=0;entryDy=0;strokeColor=#000000;" edge="1" parent="6" source="101" target="105">
                    <mxGeometry relative="1" as="geometry">
                        <Array as="points">
                            <mxPoint x="650" y="730"/>
                            <mxPoint x="650" y="915"/>
                        </Array>
                    </mxGeometry>
                </mxCell>
                <mxCell id="109" style="edgeStyle=none;html=1;exitX=1;exitY=0.5;exitDx=0;exitDy=0;entryX=1;entryY=0.5;entryDx=0;entryDy=0;strokeColor=#000000;" edge="1" parent="6" source="101" target="106">
                    <mxGeometry relative="1" as="geometry">
                        <Array as="points">
                            <mxPoint x="650" y="730"/>
                            <mxPoint x="650" y="845"/>
                        </Array>
                    </mxGeometry>
                </mxCell>
                <mxCell id="110" style="edgeStyle=none;html=1;exitX=1;exitY=0.5;exitDx=0;exitDy=0;entryX=1;entryY=0.5;entryDx=0;entryDy=0;strokeColor=#000000;" edge="1" parent="6" source="101" target="103">
                    <mxGeometry relative="1" as="geometry">
                        <Array as="points">
                            <mxPoint x="650" y="730"/>
                            <mxPoint x="650" y="775"/>
                        </Array>
                    </mxGeometry>
                </mxCell>
                <mxCell id="101" value="" style="rhombus;whiteSpace=wrap;html=1;labelBackgroundColor=none;fontColor=#FFFFFF;fillColor=none;strokeColor=#0C7C7D;strokeWidth=3;" vertex="1" parent="6">
                    <mxGeometry x="530" y="720" width="20" height="20" as="geometry"/>
                </mxCell>
                <mxCell id="116" style="edgeStyle=none;html=1;exitX=0;exitY=0.5;exitDx=0;exitDy=0;entryX=0.5;entryY=1.055;entryDx=0;entryDy=0;entryPerimeter=0;strokeColor=#000000;" edge="1" parent="6" source="103" target="111">
                    <mxGeometry relative="1" as="geometry">
                        <Array as="points">
                            <mxPoint x="520" y="775"/>
                            <mxPoint x="520" y="980"/>
                            <mxPoint x="389" y="980"/>
                        </Array>
                    </mxGeometry>
                </mxCell>
                <mxCell id="103" value="Usser scores&amp;nbsp;" style="rounded=1;whiteSpace=wrap;html=1;labelBackgroundColor=none;fontSize=10;fontColor=#000000;strokeColor=#FFFFFF;strokeWidth=1;fillColor=#259B9C;" vertex="1" parent="6">
                    <mxGeometry x="570" y="750" width="50" height="50" as="geometry"/>
                </mxCell>
                <mxCell id="115" style="edgeStyle=none;html=1;exitX=0;exitY=0.5;exitDx=0;exitDy=0;entryX=0.5;entryY=1;entryDx=0;entryDy=0;strokeColor=#000000;" edge="1" parent="6" source="106" target="111">
                    <mxGeometry relative="1" as="geometry">
                        <Array as="points">
                            <mxPoint x="520" y="845"/>
                            <mxPoint x="520" y="980"/>
                            <mxPoint x="389" y="980"/>
                        </Array>
                    </mxGeometry>
                </mxCell>
                <mxCell id="106" value="Usser scores&amp;nbsp;" style="rounded=1;whiteSpace=wrap;html=1;labelBackgroundColor=none;fontSize=10;fontColor=#000000;strokeColor=#FFFFFF;strokeWidth=1;fillColor=#259B9C;" vertex="1" parent="6">
                    <mxGeometry x="570" y="820" width="50" height="50" as="geometry"/>
                </mxCell>
                <mxCell id="114" style="edgeStyle=none;html=1;exitX=0;exitY=0.5;exitDx=0;exitDy=0;entryX=0.5;entryY=1;entryDx=0;entryDy=0;strokeColor=#000000;" edge="1" parent="6" source="105" target="111">
                    <mxGeometry relative="1" as="geometry">
                        <Array as="points">
                            <mxPoint x="520" y="915"/>
                            <mxPoint x="520" y="980"/>
                            <mxPoint x="389" y="980"/>
                        </Array>
                    </mxGeometry>
                </mxCell>
                <mxCell id="105" value="Usser scores&amp;nbsp;" style="rounded=1;whiteSpace=wrap;html=1;labelBackgroundColor=none;fontSize=10;fontColor=#000000;strokeColor=#FFFFFF;strokeWidth=1;fillColor=#259B9C;" vertex="1" parent="6">
                    <mxGeometry x="570" y="890" width="50" height="50" as="geometry"/>
                </mxCell>
                <mxCell id="113" style="edgeStyle=none;html=1;exitX=0;exitY=0.5;exitDx=0;exitDy=0;entryX=0.5;entryY=1;entryDx=0;entryDy=0;strokeColor=#000000;" edge="1" parent="6" source="104" target="111">
                    <mxGeometry relative="1" as="geometry">
                        <Array as="points">
                            <mxPoint x="389" y="985"/>
                        </Array>
                    </mxGeometry>
                </mxCell>
                <mxCell id="104" value="Usser scores&amp;nbsp;" style="rounded=1;whiteSpace=wrap;html=1;labelBackgroundColor=none;fontSize=10;fontColor=#000000;strokeColor=#FFFFFF;strokeWidth=1;fillColor=#259B9C;" vertex="1" parent="6">
                    <mxGeometry x="570" y="960" width="50" height="50" as="geometry"/>
                </mxCell>
                <mxCell id="117" style="edgeStyle=none;html=1;exitX=0.5;exitY=0;exitDx=0;exitDy=0;entryX=0.5;entryY=1;entryDx=0;entryDy=0;strokeColor=#000000;" edge="1" parent="6" source="111" target="112">
                    <mxGeometry relative="1" as="geometry"/>
                </mxCell>
                <mxCell id="111" value="Analyze the information of the player(s)&amp;nbsp;" style="rounded=1;whiteSpace=wrap;html=1;fillColor=#259B9C;" vertex="1" parent="6">
                    <mxGeometry x="324" y="890" width="130" height="60" as="geometry"/>
                </mxCell>
                <mxCell id="120" style="edgeStyle=none;html=1;exitX=0.5;exitY=0;exitDx=0;exitDy=0;entryX=0.5;entryY=1;entryDx=0;entryDy=0;strokeColor=#000000;" edge="1" parent="6" source="112" target="118">
                    <mxGeometry relative="1" as="geometry"/>
                </mxCell>
                <mxCell id="112" value="Finish inspecting the information and exit the database software." style="rounded=1;whiteSpace=wrap;html=1;fillColor=#259B9C;" vertex="1" parent="6">
                    <mxGeometry x="329" y="770" width="120" height="70" as="geometry"/>
                </mxCell>
                <mxCell id="118" value="" style="ellipse;whiteSpace=wrap;html=1;aspect=fixed;labelBackgroundColor=none;fontColor=#FFFFFF;strokeColor=#000000;strokeWidth=1;fillColor=none;" vertex="1" parent="6">
                    <mxGeometry x="374" y="715" width="30" height="30" as="geometry"/>
                </mxCell>
                <mxCell id="119" value="" style="ellipse;whiteSpace=wrap;html=1;labelBackgroundColor=none;fontColor=#FFFFFF;strokeColor=#000000;strokeWidth=1;fillColor=#000000;" vertex="1" parent="6">
                    <mxGeometry x="377" y="717.5" width="24" height="25" as="geometry"/>
                </mxCell>
            </root>
        </mxGraphModel>
    </diagram>
</mxfile>